<?xml version="1.0" encoding="UTF-8" standalone="no"?>
<!DOCTYPE svg PUBLIC "-//W3C//DTD SVG 20010904//EN" "http://www.w3.org/TR/2001/REC-SVG-20010904/DTD/svg10.dtd">
<svg version="1.0" xmlns="http://www.w3.org/2000/svg" width="900.000000pt" height="459.000000pt" viewBox="0 0 900.000000 459.000000" preserveAspectRatio="xMidYMid meet">
<metadata>
Created by potrace 1.10, written by Peter Selinger 2001-2011
</metadata>
<g transform="translate(0.000000,459.000000) scale(0.100000,-0.100000)" fill="#000000" stroke="none">
<path d="M4415 3993 c-227 -68 -393 -243 -438 -463 -25 -122 -10 -263 40 -365 55 -111 61 -121 111 -170 146 -146 300 -204 502 -189 254 19 463 202 530 464 25 97 25 173 1 271 -44 178 -165 331 -326 411 -114 56 -306 75 -420 41z m307 -93 c31 -11 72 -29 90 -40 18 -11 42 -24 53 -29 11 -5 46 -36 78 -69 68 -68 74 -102 22 -113 -32 -6 -102 -43 -173 -90 -24 -16 -47 -29 -53 -29 -5 0 -9 -4 -9 -9 0 -5 -17 -20 -37 -32 -21 -12 -53 -35 -71 -51 -18 -15 -42 -28 -53 -28 -11 0 -64 33 -117 73 -53 40 -108 80 -122 88 -58 37 -137 77 -162 83 -43 10 -35 38 31 108 57 61 125 104 226 142 62 23 226 21 297 -4z m-584 -329 c9 -4 35 -17 57 -27 47 -22 173 -107 265 -178 71 -55 81 -66 74 -78 -3 -4 -106 -8 -228 -8 -173 0 -226 3 -234 13 -19 23 -25 122 -12 194 17 91 32 107 78 84z m935 -46 c22 -60 21 -201 -2 -229 -12 -15 -39 -16 -240 -14 -154 2 -226 6 -226 14 0 13 155 144 169 144 4 0 26 15 50 33 23 17 69 45 102 61 32 16 66 32 74 37 33 18 54 5 73 -46z m-48 -346 c8 -12 -33 -76 -87 -135 -40 -44 -122 -97 -188 -122 -94 -37 -266 -37 -360 -1 -114 45 -249 166 -274 247 l-7 22 455 0 c309 0 457 -3 461 -11z"/>
<path d="M1903 1768 c-11 -5 -29 -25 -39 -44 -18 -33 -18 -35 0 -69 45 -83 166 -56 166 37 0 68 -64 106 -127 76z"/>
<path d="M406 1757 c-34 -25 -10 -44 67 -50 115 -10 107 31 107 -529 0 -336 -3 -484 -11 -502 -14 -30 -52 -45 -105 -42 -22 2 -47 -1 -56 -6 -22 -11 -23 -34 -2 -42 9 -3 130 -6 270 -6 222 0 255 2 261 16 9 25 -10 35 -78 37 -42 1 -75 8 -92 20 l-27 17 0 159 0 158 94 99 c84 88 96 97 109 84 13 -13 107 -151 289 -422 21 -31 38 -64 38 -72 0 -23 -28 -34 -100 -39 -36 -3 -66 -6 -68 -6 -2 -1 -2 -11 0 -23 l3 -23 265 0 c252 0 265 1 265 19 0 14 -14 22 -65 35 -75 19 -115 54 -175 153 -5 9 -42 63 -81 120 -38 56 -114 168 -168 246 l-97 144 17 26 c9 15 85 95 168 178 158 158 200 188 288 199 52 7 71 31 41 52 -13 10 -69 13 -237 11 -199 -3 -220 -5 -230 -21 -15 -25 15 -47 64 -47 67 0 91 -59 48 -116 -12 -16 -62 -72 -112 -124 -50 -53 -147 -155 -215 -227 -68 -73 -128 -130 -132 -127 -5 3 -9 128 -9 278 0 330 -5 314 113 323 83 6 108 23 72 49 -25 18 -494 20 -519 1z"/>
<path d="M4125 1359 c-11 -6 -37 -23 -58 -37 l-38 -25 -57 24 c-49 20 -72 24 -162 23 -85 0 -113 -4 -150 -22 -58 -27 -124 -96 -140 -145 -29 -92 0 -203 66 -254 43 -32 43 -48 -1 -68 -114 -55 -113 -198 3 -254 42 -21 49 -41 14 -41 -28 -1 -93 -46 -113 -79 -26 -43 -24 -71 10 -117 60 -84 131 -107 318 -102 114 3 148 8 194 26 79 31 140 88 162 148 23 65 21 100 -6 153 -42 84 -158 119 -360 106 -114 -7 -193 4 -209 29 -4 6 -8 26 -8 43 0 52 28 63 183 72 115 7 141 12 191 35 74 35 126 89 149 151 24 69 22 97 -13 167 -16 33 -30 64 -30 69 0 5 11 14 25 21 28 13 51 -1 66 -39 7 -18 16 -23 44 -23 67 0 84 72 30 126 -26 26 -75 32 -110 13z m-233 -78 c15 -6 41 -32 58 -58 26 -43 30 -57 30 -125 0 -92 -23 -146 -79 -184 -61 -41 -152 -29 -199 26 -37 44 -52 91 -52 162 0 57 5 82 23 112 49 86 117 107 219 67z m54 -711 c83 -14 119 -35 140 -81 l17 -40 -29 -41 c-16 -23 -45 -51 -64 -62 -52 -31 -171 -47 -255 -34 -116 17 -164 53 -164 123 0 68 56 113 164 131 92 15 119 16 191 4z"/>
<path d="M4675 1339 c-94 -15 -171 -80 -194 -164 -35 -127 22 -223 155 -263 85 -25 203 -52 227 -52 21 0 65 -27 89 -55 37 -43 13 -125 -48 -166 -42 -27 -179 -27 -234 1 -49 25 -107 94 -136 162 -18 42 -27 53 -46 53 -22 0 -23 -3 -26 -85 -4 -127 8 -204 33 -209 13 -2 29 8 47 30 l27 33 62 -32 c56 -29 70 -32 151 -32 101 0 155 18 207 71 125 124 79 315 -87 362 -31 9 -100 24 -152 33 -171 31 -235 96 -182 186 29 49 75 71 151 71 55 0 76 -5 113 -27 57 -33 68 -46 109 -124 22 -42 38 -62 48 -60 14 3 16 21 12 128 -3 127 -10 153 -35 135 -65 -48 -58 -47 -112 -21 -55 26 -119 35 -179 25z"/>
<path d="M7110 1344 c-42 -8 -103 -36 -142 -66 -50 -39 -78 -87 -78 -136 0 -33 6 -45 35 -71 53 -46 100 -39 131 21 15 29 15 34 -6 79 -26 54 -23 70 17 96 41 27 181 26 219 -3 54 -39 68 -70 72 -147 4 -70 3 -73 -22 -85 -14 -6 -49 -14 -78 -18 -203 -25 -390 -140 -400 -246 -9 -95 18 -150 94 -189 29 -15 59 -19 133 -19 108 0 161 19 232 85 38 35 38 35 53 14 8 -11 30 -38 49 -60 32 -38 35 -39 98 -39 50 0 70 5 93 22 30 22 39 51 20 63 -6 4 -27 1 -47 -6 -35 -11 -38 -10 -65 20 l-28 31 0 259 0 259 -33 44 c-54 70 -102 91 -221 94 -56 1 -112 0 -126 -2z m250 -441 c-1 -171 -94 -283 -235 -283 -49 0 -60 4 -86 29 -26 27 -29 36 -29 98 0 101 41 149 155 185 28 9 64 21 80 26 17 5 49 10 73 11 l42 1 0 -67z"/>
<path d="M1788 1333 c-31 -3 -48 -9 -52 -20 -9 -23 4 -33 50 -39 61 -9 90 -23 103 -50 7 -17 11 -113 11 -283 0 -301 0 -303 -84 -306 -48 -2 -69 -17 -59 -42 4 -11 45 -13 212 -11 198 3 206 4 206 23 0 16 -9 21 -54 28 -95 13 -90 -7 -93 371 l-3 331 -95 1 c-52 0 -116 -1 -142 -3z"/>
<path d="M2373 1333 c-7 -2 -13 -16 -13 -29 0 -21 5 -24 38 -24 21 0 48 -9 62 -20 l25 -19 3 -273 c2 -150 1 -283 -2 -294 -5 -17 -19 -25 -63 -36 -46 -11 -58 -18 -58 -33 0 -19 8 -20 195 -20 184 0 195 1 195 19 0 14 -13 22 -54 32 -29 8 -57 17 -62 20 -5 3 -9 99 -9 213 0 206 0 208 28 262 16 33 44 67 70 86 39 30 50 33 111 33 69 0 101 -13 131 -54 33 -45 40 -100 40 -308 0 -195 -1 -209 -20 -228 -11 -11 -30 -20 -42 -20 -47 0 -69 -12 -66 -34 3 -20 8 -21 191 -24 164 -2 188 0 194 13 8 22 -8 35 -47 40 -18 3 -43 11 -56 20 l-24 15 0 239 c0 218 -2 244 -20 286 -48 113 -97 145 -217 145 -95 0 -166 -29 -220 -90 -20 -22 -40 -40 -44 -40 -5 0 -11 12 -15 28 -3 15 -10 44 -15 65 l-10 37 -107 -1 c-59 0 -113 -3 -119 -6z"/>
<path d="M5338 1329 c-27 -15 -22 -46 8 -53 14 -4 37 -18 50 -31 l24 -24 0 -274 c0 -307 3 -293 -74 -312 -30 -8 -41 -16 -41 -30 0 -19 9 -20 175 -22 96 -2 181 1 189 6 24 15 4 39 -37 46 -76 12 -77 14 -80 191 -5 242 18 335 100 394 77 56 178 36 221 -45 20 -37 22 -57 25 -254 2 -118 1 -224 -2 -237 -7 -27 -27 -40 -75 -47 -40 -7 -56 -20 -48 -41 6 -14 32 -16 181 -16 181 0 206 3 206 25 0 18 -10 24 -56 30 -70 11 -74 23 -74 224 0 190 10 248 53 312 36 54 82 79 143 79 48 0 57 -4 92 -37 24 -23 44 -54 51 -78 6 -23 11 -126 11 -243 0 -201 0 -203 -24 -227 -13 -13 -37 -27 -53 -30 -49 -11 -55 -15 -51 -32 3 -16 21 -18 184 -21 146 -2 183 0 187 11 8 20 -6 37 -34 42 -47 9 -79 28 -84 49 -3 11 -6 131 -8 266 -2 257 -1 248 -51 323 -29 44 -85 67 -159 67 -86 0 -142 -26 -206 -96 -28 -30 -55 -52 -61 -49 -6 4 -19 24 -30 46 -11 22 -39 53 -62 69 -36 26 -49 30 -110 30 -85 0 -139 -23 -204 -85 -25 -25 -50 -45 -54 -45 -9 0 -17 36 -22 95 l-3 30 -90 2 c-49 2 -98 -2 -107 -8z"/>
<path d="M7848 1333 c-11 -3 -18 -14 -18 -27 0 -20 6 -24 47 -29 36 -4 53 -12 70 -34 23 -28 23 -32 23 -295 0 -255 -1 -269 -20 -288 -11 -11 -32 -20 -48 -20 -40 0 -77 -28 -61 -46 15 -18 368 -21 386 -3 18 18 3 39 -29 39 -36 0 -83 24 -92 45 -3 9 -6 96 -6 193 0 233 17 291 104 353 33 25 48 29 104 29 80 0 120 -23 151 -87 19 -40 21 -60 21 -268 0 -222 0 -225 -22 -239 -13 -8 -38 -17 -57 -20 -40 -6 -56 -19 -48 -40 6 -14 33 -16 196 -16 163 0 190 2 195 16 8 22 -1 34 -28 34 -36 0 -84 20 -92 38 -5 9 -11 130 -14 267 -5 224 -7 254 -25 285 -51 91 -102 120 -208 120 -93 0 -151 -24 -222 -91 -29 -27 -55 -46 -58 -42 -4 3 -7 26 -7 50 0 79 -6 83 -123 82 -56 -1 -110 -3 -119 -6z"/>
</g>
</svg>